<?xml version="1.0" encoding="utf-8"?>
<!-- Generator: Adobe Illustrator 19.0.0, SVG Export Plug-In . SVG Version: 6.00 Build 0)  -->
<svg version="1.1" xmlns="http://www.w3.org/2000/svg" xmlns:xlink="http://www.w3.org/1999/xlink" x="0px" y="0px"
	 viewBox="0 0 266 266" style="enable-background:new 0 0 266 266;" xml:space="preserve">
<style type="text/css">
	.st0{display:none;}
	.st1{display:inline;fill:#F9F9F9;}
	.st2{display:inline;}
	.st3{fill:#ADECC0;}
	.st4{fill:#E5B295;}
	.st5{fill:#D39E7A;}
	.st6{fill:#332113;}
	.st7{fill:#FFFFFF;}
	.st8{fill:#3A1E0B;}
	.st9{display:inline;fill:#3A1E0B;}
	.st10{fill:url(#SVGID_1_);}
	.st11{fill:url(#SVGID_2_);}
	.st12{fill:#423A40;}
	.st13{fill:#F7D9B5;}
	.st14{fill:#EFBC8B;}
	.st15{fill:#EFAB84;}
	.st16{fill:#FFFFFF;stroke:#D6702B;stroke-width:1.3835;stroke-miterlimit:10;}
	.st17{fill:url(#SVGID_3_);}
	.st18{fill:url(#SVGID_4_);}
	.st19{fill:url(#SVGID_5_);}
	.st20{fill:url(#SVGID_6_);}
	.st21{fill:url(#SVGID_7_);}
	.st22{fill:#E87E7C;}
</style>
<g id="background" class="st0">
	<rect x="-1373" y="-267" class="st1" width="800" height="800"/>
</g>
<g id="objects">
	<g class="st0">
		<g class="st2">
			<g>
				<path class="st3" d="M198.6,181.1c-3-2.1-6.4-3.6-10-4.6l-3.8-1c0,0,0.1,0,0.1,0l-27-8.8h0c-14.2,12.7-35.6,12.7-49.8,0l0,0
					l-27,8.8c0,0,0.1,0,0.1,0l-3.9,1c-3.1,0.9-6.1,2.1-8.7,3.8c-13.7,9-14.1,23.6-14.7,26.4c0,0.2,0.2,0.4,0.4,0.4H133h78.7
					c0.3,0,0.5-0.2,0.4-0.4C211.5,204,211.3,190.1,198.6,181.1z"/>
				<path class="st4" d="M157.9,166.7l-3-1c-2.4-0.6-3.8-2.6-4.2-4.8c-1.2-6.2-1.1-21.3-1-24c0-0.2-0.2-0.4-0.4-0.4h-1.4h-29.7h-1.4
					c-0.2,0-0.4,0.2-0.4,0.4c0,2.7,0.2,17.4-1,24c-0.4,2.2-1.8,4.2-4.2,4.8l-3,1l0,0C122.3,179.4,143.7,179.4,157.9,166.7
					L157.9,166.7z"/>
			</g>
			<g>
				<g>
					<path class="st5" d="M150.1,155.2c-0.1-7-0.4-13.6-0.4-15.4c0-0.3-0.2-0.5-0.4-0.5h-32.6c-0.2,0-0.4,0.2-0.4,0.5
						c0,1.8-0.3,8.4-0.4,15.4c2.3,2.4,11,5.9,16.8,5.9C138.7,161.2,147.6,157.2,150.1,155.2z"/>
				</g>
				<g>
					<path class="st4" d="M102.2,104.7c2.3,6.2,1,15.8-2.9,17.7c-3.9,1.9-8.9-4.8-11.2-11c-2.3-6.2-1-12.7,2.9-14.6
						C94.9,95,99.9,98.5,102.2,104.7z"/>
					<path class="st4" d="M163.8,104.7c-2.3,6.2-1,15.8,2.9,17.7c3.9,1.9,8.9-4.8,11.2-11c2.3-6.2,1-12.7-2.9-14.6
						C171.1,95,166.1,98.5,163.8,104.7z"/>
				</g>
				<path class="st4" d="M132.8,51.3C94.1,50,93.5,87.1,94.1,99.4c0.4,8.9,2.5,21.9,4.4,28.3c1.1,3.7,3,9.9,5.9,12.6
					c7.6,7.2,17,13.6,22.8,15.8c1,0.4,3.3,0.6,5.7,0.6c2.4,0,4.7-0.2,5.7-0.6c5.8-2.2,15.2-8.6,22.8-15.8c2.8-2.7,4.8-8.9,5.9-12.6
					c1.9-6.4,4-19.4,4.4-28.3C172.2,87.1,171.6,50,132.8,51.3z"/>
				<g>
					<ellipse class="st6" cx="113.3" cy="101.1" rx="4.8" ry="5.5"/>
					<ellipse class="st6" cx="152.7" cy="101.1" rx="4.8" ry="5.5"/>
				</g>
				<g>
					<g>
						<path class="st7" d="M123,130.4c1.7,3.8,5.5,6.5,10,6.5s8.3-2.7,10-6.5H123z"/>
					</g>
				</g>
			</g>
			<g>
				<path class="st8" d="M123.4,121.3c-1.9,0.8-3.3,2.4-4.8,3.7c-1.5,1.3-3.6,2.5-5.7,2.1c3,2.3,7.1,3.5,11.1,3.2
					c3.1-0.2,9.5-2.7,9.2-6.1C132.9,120.7,126.5,119.9,123.4,121.3z"/>
				<path class="st8" d="M142.6,121.3c1.9,0.8,3.3,2.4,4.8,3.7c1.5,1.3,3.6,2.5,5.7,2.1c-3,2.3-7.1,3.5-11.1,3.2
					c-3.1-0.2-9.5-2.7-9.2-6.1C133.1,120.7,139.5,119.9,142.6,121.3z"/>
			</g>
		</g>
		<path class="st9" d="M170.5,67c-0.1-0.7-0.3-1.3-0.7-1.9c-6.1-9.8-19-16.9-35.7-16.3c-16.8-0.6-29.7,6.5-35.7,16.3
			c-0.4,0.6-0.6,1.2-0.7,1.9c-4.4,8.4-2.7,18-2.8,25.1c0.3,4.6,1,9.1,2.5,13.2c1.2-6.3,0.8-22.8,2.2-29.1c1.1-4.6,23.1-3.3,34.5-3.3
			c11.4,0,21.9,3,30.1-0.2c1.9,4.4,3.4,8.9,4.5,13.6c1.4,6.3,1,12.8,2.2,19.1c1.4-4.1,2.2-8.6,2.5-13.2
			C173.2,85.1,174.9,75.4,170.5,67z"/>
	</g>
	<g>
		<g>
			<g>
				
					<linearGradient id="SVGID_1_" gradientUnits="userSpaceOnUse" x1="-1965.379" y1="115.308" x2="-1965.379" y2="181.7898" gradientTransform="matrix(-1 0 0 1 -1811.6259 0)">
					<stop  offset="0.1457" style="stop-color:#423A40"/>
					<stop  offset="1" style="stop-color:#665F72"/>
				</linearGradient>
				<path class="st10" d="M175.6,173.9c-0.8,6.3-1.7,12.8-4.4,18.6c-2.7,5.8-7.4,10.9-13.6,12.6c-7.2,2-15.1-1.3-20.3-6.7
					c-5.1-5.4-7.9-12.7-9.5-20c-4.1-18.8-1.1-39.1,8.1-56c4.5-8.2,36.5-46.3,43.6-31c4.3,9.3,0,30.6-0.4,40.9
					C178.4,146.2,177.3,160.1,175.6,173.9z"/>
				<linearGradient id="SVGID_2_" gradientUnits="userSpaceOnUse" x1="110.6221" y1="115.308" x2="110.6221" y2="181.7898">
					<stop  offset="0.1457" style="stop-color:#423A40"/>
					<stop  offset="1" style="stop-color:#665F72"/>
				</linearGradient>
				<path class="st11" d="M88.8,173.9c0.8,6.3,1.7,12.8,4.4,18.6c2.7,5.8,7.4,10.9,13.6,12.6c7.2,2,15.1-1.3,20.3-6.7
					c5.1-5.4,7.9-12.7,9.5-20c4.1-18.8,1.1-39.1-8.1-56c-4.5-8.2-36.5-46.3-43.6-31c-4.3,9.3,0,30.6,0.4,40.9
					C85.9,146.2,87.1,160.1,88.8,173.9z"/>
			</g>
			<g>
				<path class="st12" d="M180.6,90.5c-0.7-9.4-3.3-19-9.1-26.8c-8.6-11.5-24.1-18.3-39.2-18.3c-15.2,0-30.7,6.7-39.2,18.3
					c-5.8,7.8-8.4,17.3-9.1,26.8c-0.2,2.6-0.9,7,0,11.8c4.7,24.4,19.5,42.6,44.7,45.5c1.4,0.2,2.6,0.2,3.6,0.2
					c1.1,0,2.3-0.1,3.6-0.2c25.2-2.8,38.5-19,44.7-45.5C181.8,97.5,180.8,93.1,180.6,90.5z"/>
			</g>
			<g>
				<path class="st13" d="M188.1,185.4c-2.5-2-5.5-3.5-8.6-4.5l-28.9-9l0,0c-2.1-0.6-3.2-2.5-3.6-4.7c-1-6-0.9-21.9-0.9-24.5
					c0-0.2-0.2-0.4-0.4-0.4h-25.5c-0.2,0-0.4,0.2-0.4,0.4c0,2.6,0.1,18.2-0.9,24.5c-0.3,2.1-1.5,4-3.6,4.7l0,0l-29,9
					c-2.7,0.8-5.2,2-7.5,3.7c-11.8,8.7-12.1,22.8-12.6,25.5c0,0.2,0.1,0.4,0.4,0.4H133h66.3c0.2,0,0.4-0.2,0.4-0.4
					C199.2,207.5,199,194.1,188.1,185.4z"/>
				<path class="st13" d="M188.1,185.4c-2.5-2-5.5-3.5-8.6-4.5l-28.9-9l0,0c-2.1-0.6-3.2-2.5-3.6-4.7c-1-6-0.9-21.9-0.9-24.5
					c0-0.2-0.2-0.4-0.4-0.4h-25.5c-0.2,0-0.4,0.2-0.4,0.4c0,2.6,0.1,18.2-0.9,24.5c-0.3,2.1-1.5,4-3.6,4.7l0,0l-29,9
					c-2.7,0.8-5.2,2-7.5,3.7c-11.8,8.7-12.1,22.8-12.6,25.5c0,0.2,0.1,0.4,0.4,0.4H133h66.3c0.2,0,0.4-0.2,0.4-0.4
					C199.2,207.5,199,194.1,188.1,185.4z"/>
				<g>
					<path class="st14" d="M146.2,156.1c-0.1-5.4-0.1-10.6-0.1-12c0-0.2-0.2-0.4-0.4-0.4h-25.5c-0.2,0-0.4,0.2-0.4,0.4
						c0,1.4,0,6.5-0.1,12C128.3,159,137.7,159,146.2,156.1z"/>
				</g>
				<g>
					<path class="st13" d="M102.2,109.7c2.3,5.5,1,14-2.9,15.6c-3.9,1.6-8.9-4.2-11.2-9.7c-2.3-5.5-1-11.2,2.9-12.9
						C94.9,101.2,99.9,104.3,102.2,109.7z"/>
					<path class="st13" d="M163.8,109.7c-2.3,5.5-1,14,2.9,15.6c3.9,1.6,8.9-4.2,11.2-9.7c2.3-5.5,1-11.2-2.9-12.9
						C171.1,101.2,166.1,104.3,163.8,109.7z"/>
				</g>
				<path class="st13" d="M133,55.9C93.9,54.4,93.3,91.7,93.9,104c0.4,8.9,3.9,21.9,5.8,28.3c1.1,3.7,3,7.1,5.9,9.8
					c10.2,9.7,27.4,13.1,27.4,13.1s17.2-3.3,27.4-13.1c2.8-2.7,4.8-6.1,5.9-9.8c1.9-6.4,5.4-19.4,5.8-28.3
					C172.7,91.7,172.1,54.4,133,55.9z"/>
				<circle class="st15" cx="106.9" cy="121.5" r="5.7"/>
				<circle class="st15" cx="157" cy="121.5" r="5.7"/>
				<g>
					<path class="st6" d="M112.1,102c3.2,0,5.8,2.5,5.8,5.5c0,3-2.6,5.5-5.8,5.5c-3.2,0-5.8-3.9-5.8-6.9
						C106.2,103,108.8,102,112.1,102z"/>
					<path class="st6" d="M153.9,102c3.2,0,5.8,1,5.8,4.1c0,3-2.6,6.9-5.8,6.9s-5.8-2.5-5.8-5.5C148.1,104.5,150.7,102,153.9,102z"
						/>
				</g>
			</g>
			<g>
				<g>
					<path class="st16" d="M123,131.9c1.7,3.8,5.5,6.5,10,6.5c4.5,0,8.3-2.7,10-6.5H123z"/>
				</g>
			</g>
			<linearGradient id="SVGID_3_" gradientUnits="userSpaceOnUse" x1="136.4803" y1="62.2354" x2="136.4803" y2="84.7872">
				<stop  offset="0.1457" style="stop-color:#423A40"/>
				<stop  offset="1" style="stop-color:#665F72"/>
			</linearGradient>
			<path class="st17" d="M128.3,65.3c-0.1,9.2-0.2,18.4-0.2,27.6c4.3-3.8,8.7-7.6,12-12.3c4.8-6.9,7.9-19.3,0-25.4
				C131.7,48.6,128.4,57.9,128.3,65.3z"/>
			<linearGradient id="SVGID_4_" gradientUnits="userSpaceOnUse" x1="108.5053" y1="68.9045" x2="108.5053" y2="102.2842">
				<stop  offset="0.1457" style="stop-color:#423A40"/>
				<stop  offset="1" style="stop-color:#665F72"/>
			</linearGradient>
			<path class="st18" d="M91.8,93.7c-0.2,7.6,1.1,16.3,7.4,20.6c-2.1-10.8,0-22.2,5.2-31.7c2.8-5.1,21.1-18.8,20.9-22.3
				c-0.6-10.8-19.1-1.8-22.3,1.2C94.4,69.7,92,82.3,91.8,93.7z"/>
			<linearGradient id="SVGID_5_" gradientUnits="userSpaceOnUse" x1="165.7214" y1="72.6768" x2="165.7214" y2="106.5248">
				<stop  offset="0.1457" style="stop-color:#423A40"/>
				<stop  offset="1" style="stop-color:#665F72"/>
			</linearGradient>
			<path class="st19" d="M167.5,118.7c5.5-7.6,9.7-16.4,10.9-25.7c1.1-9.2-0.9-19.3-6.8-26.7c-4.7-5.8-14-12.5-18.1-2.4
				c-3.3,8.1,6.6,17,9.6,24.1C167,97.6,168.6,108.3,167.5,118.7z"/>
			<linearGradient id="SVGID_6_" gradientUnits="userSpaceOnUse" x1="119.1659" y1="63.0714" x2="119.1659" y2="86.4263">
				<stop  offset="0.1457" style="stop-color:#423A40"/>
				<stop  offset="1" style="stop-color:#665F72"/>
			</linearGradient>
			<path class="st20" d="M110.7,70.5c-4.2,7.3-5.2,16.3-2.6,24.3c0.2-5.4,4.2-9.9,8.4-13.4c4.2-3.4,9-6.3,12.1-10.8
				c3-4.3,5.7-16.5-1.1-17.2C121.8,52.9,113,66.4,110.7,70.5z"/>
			<linearGradient id="SVGID_7_" gradientUnits="userSpaceOnUse" x1="149.1716" y1="60.2504" x2="149.1716" y2="80.5791">
				<stop  offset="0.1457" style="stop-color:#423A40"/>
				<stop  offset="1" style="stop-color:#665F72"/>
			</linearGradient>
			<path class="st21" d="M140.7,66.6c1,3.6,2.7,6.9,4,10.3c1.3,3.4,2.3,7.3,1.7,11c3.5-3.4,7-7,9.3-11.5c4.1-8,3.5-20.6-5.2-23.9
				C143,49.5,138.4,58.1,140.7,66.6z"/>
			<polygon class="st22" points="170.5,177.4 165.1,175.7 165.1,193.9 133,202.9 100.9,193.9 100.9,175.7 95.5,177.4 91.3,210.5 
				132.7,210.5 133.3,210.5 174.7,210.5 			"/>
		</g>
	</g>
</g>
</svg>
