<?xml version="1.0" encoding="utf-8"?>
<!-- Generator: Adobe Illustrator 19.0.0, SVG Export Plug-In . SVG Version: 6.00 Build 0)  -->
<svg version="1.1" id="Слой_1" xmlns="http://www.w3.org/2000/svg" xmlns:xlink="http://www.w3.org/1999/xlink" x="0px" y="0px"
	 viewBox="569 -137.3 1206.3 351.3" style="enable-background:new 569 -137.3 1206.3 351.3;" xml:space="preserve">
<style type="text/css">
	.st0{fill:#B42B11;}
	.st1{fill:#EAD28B;}
	.st2{fill:#F5F5A5;}
</style>
<g id="Слой_1_1_">
	<path class="st0" d="M1717.1,214H628.4c-32.7,0-59.4-26.8-59.4-59.5V-77.9c0-32.7,26.7-59.4,59.4-59.4H1717
		c32.7,0,59.4,26.7,59.4,59.4v232.4C1776.5,187.2,1749.8,214,1717.1,214z"/>
	<g>
		<path class="st1" d="M844.1,25.6h-16.6L773.1-34v59.6h-13.7V-92.1h13.7v57l53-57h15.7L789.7-35L844.1,25.6z"/>
		<path class="st1" d="M899.3,27.2c-5.7,0-11-1.1-15.7-3.2c-4.7-2.1-8.7-5.4-12-9.8h-1c0.6,5.2,1,10,1,14.6v36.3h-13.4V-62.6h10.9
			l1.9,12.1h0.6c3.4-4.8,7.4-8.3,12-10.5c4.6-2.1,9.8-3.2,15.7-3.2c11.7,0,20.7,4,27.1,12c6.4,8,9.5,19.2,9.5,33.6
			c0,14.5-3.2,25.7-9.7,33.8C919.8,23.2,910.8,27.2,899.3,27.2z M897.4-52.9c-9,0-15.5,2.5-19.6,7.5c-4,5-6.1,12.9-6.2,23.8v3
			c0,12.4,2.1,21.3,6.2,26.6s10.8,8,19.9,8c7.6,0,13.6-3.1,17.9-9.3s6.5-14.7,6.5-25.5c0-11-2.2-19.4-6.5-25.3
			C911.3-50,905.2-52.9,897.4-52.9z"/>
		<path class="st1" d="M1013.5,25.6l-2.7-12.6h-0.6c-4.4,5.5-8.8,9.3-13.2,11.2c-4.4,2-9.8,2.9-16.4,2.9c-8.7,0-15.6-2.3-20.6-6.8
			s-7.4-10.9-7.4-19.2c0-17.8,14.2-27.1,42.7-28l15-0.5v-5.5c0-6.9-1.5-12-4.5-15.3s-7.7-4.9-14.3-4.9c-7.4,0-15.7,2.3-24.9,6.8
			l-4.1-10.2c4.3-2.4,9.1-4.2,14.3-5.6c5.2-1.3,10.4-2,15.6-2c10.5,0,18.3,2.3,23.4,7s7.6,12.2,7.6,22.5v60.2L1013.5,25.6
			L1013.5,25.6z M983.3,16.2c8.3,0,14.8-2.3,19.6-6.8c4.7-4.6,7.1-10.9,7.1-19.2v-8l-13.4,0.6c-10.6,0.4-18.3,2-23,4.9
			c-4.7,2.9-7,7.5-7,13.6c0,4.8,1.5,8.5,4.4,11C974,14.9,978.1,16.2,983.3,16.2z"/>
		<path class="st1" d="M1086.2,27.2c-12.8,0-22.7-3.9-29.7-11.8c-7-7.9-10.5-19-10.5-33.4c0-14.8,3.6-26.2,10.7-34.2
			c7.1-8,17.2-12.1,30.4-12.1c4.2,0,8.5,0.5,12.7,1.4s7.6,2,10,3.2l-4.1,11.4c-3-1.2-6.2-2.2-9.7-2.9c-3.5-0.8-6.6-1.2-9.3-1.2
			c-17.9,0-26.9,11.4-26.9,34.3c0,10.8,2.2,19.2,6.6,24.9c4.4,5.8,10.9,8.7,19.4,8.7c7.4,0,14.9-1.6,22.6-4.7v11.8
			C1102.6,25.6,1095.1,27.2,1086.2,27.2z"/>
		<path class="st1" d="M1142.8-62.6v36.9h49.4v-36.9h13.4v88.2h-13.4v-39.8h-49.4v39.8h-13.4v-88.2H1142.8z"/>
		<path class="st1" d="M1288.1,25.6l-2.7-12.6h-0.6c-4.4,5.5-8.8,9.3-13.2,11.2c-4.4,2-9.8,2.9-16.4,2.9c-8.7,0-15.6-2.3-20.6-6.8
			s-7.4-10.9-7.4-19.2c0-17.8,14.2-27.1,42.7-28l15-0.5v-5.5c0-6.9-1.5-12-4.5-15.3s-7.7-4.9-14.3-4.9c-7.4,0-15.7,2.3-24.9,6.8
			l-4.1-10.2c4.3-2.4,9.1-4.2,14.3-5.6c5.2-1.3,10.4-2,15.6-2c10.5,0,18.3,2.3,23.4,7c5.1,4.7,7.6,12.2,7.6,22.5v60.2L1288.1,25.6
			L1288.1,25.6z M1257.9,16.2c8.3,0,14.8-2.3,19.6-6.8c4.7-4.6,7.1-10.9,7.1-19.2v-8l-13.4,0.6c-10.6,0.4-18.3,2-23,4.9
			s-7,7.5-7,13.6c0,4.8,1.5,8.5,4.4,11C1248.6,14.9,1252.7,16.2,1257.9,16.2z"/>
		<path class="st1" d="M1330,25.6h-15.6l25.4-37.3c-6.8-1.5-12-4.4-15.7-8.7c-3.6-4.3-5.4-9.8-5.4-16.3c0-8,2.7-14.4,8.1-19
			c5.4-4.6,13-6.9,22.7-6.9h39.3v88.2h-13.4V-9.7h-22.3L1330,25.6z M1331.6-36.6c0,10.2,7.4,15.3,22.2,15.3h21.5v-29.8h-24.2
			C1338.1-51.1,1331.6-46.2,1331.6-36.6z"/>
	</g>
	<g>
		<path class="st1" d="M831.8,157.6h-14.3V80.8h-28c-1.5,19.1-3.7,34.3-6.4,45.5c-2.7,11.2-6.3,19.4-10.6,24.6
			c-4.3,5.2-9.9,7.8-16.6,7.8c-3.1,0-5.5-0.3-7.3-1v-9.9c1.2,0.3,2.7,0.5,4.3,0.5c6.5,0,11.7-6.5,15.6-19.6
			c3.9-13,6.8-32.8,8.8-59.4h54.6v88.3H831.8z"/>
		<path class="st1" d="M942.3,113.4c0,14.4-3.8,25.6-11.5,33.7s-18.2,12.1-31.7,12.1c-8.3,0-15.7-1.9-22.2-5.6s-11.5-9-15-15.9
			s-5.3-15-5.3-24.3c0-14.4,3.8-25.6,11.4-33.6c7.6-8,18.2-12,31.7-12c13.1,0,23.4,4.1,31.1,12.3C938.4,88.3,942.3,99.4,942.3,113.4
			z M871.2,113.4c0,11.3,2.4,19.9,7.1,25.8c4.8,5.9,11.8,8.9,21,8.9c9.2,0,16.3-2.9,21.1-8.8c4.8-5.9,7.2-14.5,7.2-25.8
			c0-11.2-2.4-19.7-7.2-25.6c-4.8-5.8-11.9-8.7-21.2-8.7s-16.2,2.9-20.9,8.6C873.5,93.5,871.2,102,871.2,113.4z"/>
		<path class="st1" d="M1036.6,146.1h41.4V69.6h14.1v76.5h13.4v41.8h-14.3v-30.3H967v-88h14.1v76.5h41.3V69.6h14.1L1036.6,146.1
			L1036.6,146.1z"/>
		<path class="st1" d="M1180.8,157.6L1178,145h-0.7c-4.7,5.5-9.3,9.3-13.9,11.2c-4.6,2-10.4,2.9-17.3,2.9c-9.3,0-16.5-2.3-21.7-6.8
			c-5.2-4.5-7.9-10.9-7.9-19.2c0-17.8,15.1-27.1,45.2-28l15.8-0.5v-5.5c0-6.9-1.6-12-4.7-15.3s-8.2-5-15.1-5
			c-7.8,0-16.6,2.3-26.4,6.8l-4.3-10.2c4.6-2.4,9.6-4.2,15.1-5.6c5.5-1.3,11-2,16.5-2c11.1,0,19.4,2.3,24.7,7s8,12.2,8,22.5v60.2
			h-10.5V157.6z M1148.8,148.2c8.8,0,15.7-2.3,20.7-6.8c5-4.6,7.5-10.9,7.5-19.2v-8l-14.1,0.6c-11.2,0.4-19.3,2-24.3,4.9
			s-7.4,7.5-7.4,13.6c0,4.8,1.5,8.5,4.6,11C1138.9,146.9,1143.3,148.2,1148.8,148.2z"/>
		<path class="st1" d="M1301.4,188.1h-13.7v-30.5h-65.2v30.5h-13.6v-42h7.3c7.6-9.8,13.6-21.2,17.9-34.4c4.3-13.1,6.6-27.3,6.7-42.3
			h47.2v76.7h13.4V188.1z M1274.4,146.1V79.9h-20.9c-0.7,11.9-3.2,24-7.3,36.2c-4.1,12.2-9.2,22.2-15.4,30H1274.4z"/>
		<path class="st1" d="M1334.1,105.8h28.8c23.8,0,35.7,8.3,35.7,24.9c0,8.7-3.1,15.3-9.3,20c-6.2,4.6-15.3,6.9-27.3,6.9h-42V69.4
			h14.1V105.8z M1334.1,117.3v29.1h27.2c7.5,0,13.2-1.2,17.2-3.7s6-6.2,6-11.2c0-4.9-1.8-8.5-5.5-10.7c-3.7-2.3-9.7-3.4-18.1-3.4
			L1334.1,117.3L1334.1,117.3z"/>
	</g>
	<g>
		<path class="st1" d="M728.2,153.7h-14.5V-1.2h-63.9v154.9h-14.4V-19.1h92.9L728.2,153.7L728.2,153.7z"/>
	</g>
	<polygon class="st2" points="1585.1,-93.6 1612.4,9.5 1705.3,9.5 1622.2,76.6 1645.2,169.4 1559.6,109.8 1466.9,168.3 1502.9,71.7 
		1426.7,9.5 1529.3,9.5 	"/>
	<g>
		<polygon class="st2" points="1527.8,64 1480.7,25.6 1544.3,25.6 1577.3,-35.6 1593.6,25.6 1651.4,25.6 1600.4,66.7 1614.5,124 
			1562.8,88 1506.6,120.4 		"/>
		<path class="st0" d="M1575.8-22.2l14,52.7h47.5l-42.5,34.3l11.8,47.5l-43.8-30.5l-45.9,25.1l16.9-44.6l-39-31.8h52.5L1575.8-22.2
			 M1578.9-49.1l-12,22.2l-25.7,47.5h-46.5h-28.1l21.8,17.8l33.5,27.3l-14.4,37.9l-11.2,30.4l26.4-18.8l40.2-21l38,26.5l21.8,15.2
			l-6.4-25.8l-10.2-41.3l37.5-30.3l22.1-17.8h-28.3h-39.8l-12-45.3L1578.9-49.1L1578.9-49.1z"/>
	</g>
	<rect x="1599.6" y="-92.1" class="st2" width="175.8" height="4"/>
	<rect x="1604.1" y="-80" class="st2" width="172.3" height="4"/>
	<rect x="1606.6" y="-67.8" class="st2" width="169.8" height="4"/>
	<rect x="1609.6" y="-55.7" class="st2" width="166.8" height="4"/>
	<rect x="1612.6" y="-43.6" class="st2" width="163.8" height="4"/>
	<rect x="1615.6" y="-31.4" class="st2" width="160.8" height="4"/>
	<rect x="1618.1" y="-19.3" class="st2" width="158.3" height="4"/>
	<rect x="1620.6" y="-7.2" class="st2" width="155.8" height="4"/>
</g>
</svg>
