<?xml version="1.0" encoding="utf-8"?>
<!-- Generator: Adobe Illustrator 19.0.0, SVG Export Plug-In . SVG Version: 6.00 Build 0)  -->
<svg version="1.1" id="Слой_1" xmlns="http://www.w3.org/2000/svg" xmlns:xlink="http://www.w3.org/1999/xlink" x="0px" y="0px"
	 viewBox="324 198.7 1259.7 397.3" style="enable-background:new 324 198.7 1259.7 397.3;" xml:space="preserve">
<path d="M1024.3,475.1c-4.1,12.2-9.2,22.2-15.4,30h43.6v-66.2h-20.9C1030.9,450.8,1028.4,462.9,1024.3,475.1z"/>
<path d="M781,368.4c4.7-4.6,7.1-10.9,7.1-19.2v-8l-13.4,0.6c-10.6,0.4-18.3,2-23,4.9c-4.7,2.9-7,7.5-7,13.6c0,4.8,1.5,8.5,4.4,11
	c3,2.6,7.1,3.9,12.3,3.9C769.7,375.2,776.2,372.9,781,368.4z"/>
<path d="M675.8,375c7.6,0,13.6-3.1,17.9-9.3c4.3-6.2,6.5-14.7,6.5-25.5c0-11-2.2-19.4-6.5-25.3c-4.3-5.9-10.4-8.8-18.2-8.8
	c-9,0-15.5,2.5-19.6,7.5c-4,5-6.1,12.9-6.2,23.8v3c0,12.4,2.1,21.3,6.2,26.6C660,372.3,666.7,375,675.8,375z"/>
<path d="M1023.7,371.3c3,2.6,7.1,3.9,12.3,3.9c8.3,0,14.8-2.3,19.6-6.8c4.7-4.6,7.1-10.9,7.1-19.2v-8l-13.4,0.6
	c-10.6,0.4-18.3,2-23,4.9c-4.7,2.9-7,7.5-7,13.6C1019.3,365.1,1020.8,368.8,1023.7,371.3z"/>
<path d="M677.3,438.2c-9.3,0-16.2,2.9-20.9,8.6c-4.8,5.7-7.1,14.2-7.1,25.6c0,11.3,2.4,19.9,7.1,25.8c4.8,5.9,11.8,8.9,21,8.9
	c9.2,0,16.3-2.9,21.1-8.8c4.8-5.9,7.2-14.5,7.2-25.8c0-11.2-2.4-19.7-7.2-25.6C693.7,441.1,686.6,438.2,677.3,438.2z"/>
<path d="M916.7,478.7c-5,2.9-7.4,7.5-7.4,13.6c0,4.8,1.5,8.5,4.6,11c3.1,2.6,7.5,3.9,13,3.9c8.8,0,15.7-2.3,20.7-6.8
	c5-4.6,7.5-10.9,7.5-19.2v-8l-14.1,0.6C929.8,474.2,921.7,475.8,916.7,478.7z"/>
<path d="M1153.4,337.7v-29.8h-24.2c-13,0-19.5,4.9-19.5,14.5c0,10.2,7.4,15.3,22.2,15.3H1153.4z"/>
<path d="M1157.1,479.8c-3.7-2.3-9.7-3.4-18.1-3.4l-26.8-0.1v29.1h27.2c7.5,0,13.2-1.2,17.2-3.7s6-6.2,6-11.2
	C1162.6,485.6,1160.8,482,1157.1,479.8z"/>
<path d="M1554.5,283h-172.3v-9h172.2c-0.1-2.9-1.6-7.1-1.6-7.1c-6.4-25.9-29.9-45.2-57.7-45.2H406.5c-32.7,0-59.4,26.7-59.4,59.4
	v232.4c0,32.7,26.7,59.5,59.4,59.5h1088.7c32.7,0,59.4-26.8,59.3-59.5V355.8h-155.8v-9h155.8v-15.2h-160.8v-9h160.8v-15.3h-166.8v-9
	h166.8V283z M1048,332.1l15-0.5v-5.5c0-6.9-1.5-12-4.5-15.3s-7.7-4.9-14.3-4.9c-7.4,0-15.7,2.3-24.9,6.8l-4.1-10.2
	c4.3-2.4,9.1-4.2,14.3-5.6c5.2-1.3,10.4-2,15.6-2c10.5,0,18.3,2.3,23.4,7c5.1,4.7,7.6,12.2,7.6,22.5v60.2h-9.9l-2.7-12.6h-0.6
	c-4.4,5.5-8.8,9.3-13.2,11.2c-4.4,2-9.8,2.9-16.4,2.9c-8.7,0-15.6-2.3-20.6-6.8s-7.4-10.9-7.4-19.2
	C1005.3,342.3,1019.5,333,1048,332.1z M636.3,296.4h10.9l1.9,12.1h0.6c3.4-4.8,7.4-8.3,12-10.5c4.6-2.1,9.8-3.2,15.7-3.2
	c11.7,0,20.7,4,27.1,12c6.4,8,9.5,19.2,9.5,33.6c0,14.5-3.2,25.7-9.7,33.8c-6.4,8-15.4,12-26.9,12c-5.7,0-11-1.1-15.7-3.2
	c-4.7-2.1-8.7-5.4-12-9.8h-1c0.6,5.2,1,10,1,14.6v36.3h-13.4L636.3,296.4L636.3,296.4z M506.3,512.7h-14.5V357.8h-63.9v154.9h-14.4
	V339.9h92.9L506.3,512.7z M610,516.6L610,516.6h-14.4v-76.8h-28c-1.5,19.1-3.7,34.3-6.4,45.5s-6.3,19.4-10.6,24.6
	c-4.3,5.2-9.9,7.8-16.6,7.8c-3.1,0-5.5-0.3-7.3-1v-9.9c1.2,0.3,2.7,0.5,4.3,0.5c6.5,0,11.7-6.5,15.6-19.6c3.9-13,6.8-32.8,8.8-59.4
	H610V516.6L610,516.6z M605.6,384.6L551.2,325v59.6h-13.7V266.9h13.7v57l53-57h15.7L567.8,324l54.4,60.6H605.6z M708.9,506.1
	c-7.7,8.1-18.2,12.1-31.7,12.1c-8.3,0-15.7-1.9-22.2-5.6s-11.5-9-15-15.9c-3.5-6.9-5.3-15-5.3-24.3c0-14.4,3.8-25.6,11.4-33.6
	c7.6-8,18.2-12,31.7-12c13.1,0,23.4,4.1,31.1,12.3c7.6,8.2,11.5,19.3,11.5,33.3C720.4,486.8,716.6,498,708.9,506.1z M730.7,360.1
	c0-17.8,14.2-27.1,42.7-28l15-0.5v-5.5c0-6.9-1.5-12-4.5-15.3s-7.7-4.9-14.3-4.9c-7.4,0-15.7,2.3-24.9,6.8l-4.1-10.2
	c4.3-2.4,9.1-4.2,14.3-5.6c5.2-1.3,10.4-2,15.6-2c10.5,0,18.3,2.3,23.4,7c5.1,4.7,7.6,12.2,7.6,22.5v60.2h-9.9l-2.7-12.6h-0.6
	c-4.4,5.5-8.8,9.3-13.2,11.2c-4.4,2-9.8,2.9-16.4,2.9c-8.7,0-15.6-2.3-20.6-6.8S730.7,368.4,730.7,360.1z M883.6,546.9h-14.3v-30.3
	H745.1v-88h14.1v76.5h41.3v-76.5h14.1l0.1,76.5h41.4v-76.5h14.1v76.5h13.4L883.6,546.9L883.6,546.9z M844.5,365.8
	c4.4,5.8,10.9,8.7,19.4,8.7c7.4,0,14.9-1.6,22.6-4.7v11.8c-5.8,3-13.3,4.6-22.2,4.6c-12.8,0-22.7-3.9-29.7-11.8
	c-7-7.9-10.5-19-10.5-33.4c0-14.8,3.6-26.2,10.7-34.2c7.1-8,17.2-12.1,30.4-12.1c4.2,0,8.5,0.5,12.7,1.4c4.2,0.9,7.6,2,10,3.2
	l-4.1,11.4c-3-1.2-6.2-2.2-9.7-2.9c-3.5-0.8-6.6-1.2-9.3-1.2c-17.9,0-26.9,11.4-26.9,34.3C837.9,351.7,840.1,360.1,844.5,365.8z
	 M969.4,516.5h-10.5v0.1l0,0l0,0l0,0l-2.8-12.6h-0.7c-4.7,5.5-9.3,9.3-13.9,11.2c-4.6,2-10.4,2.9-17.3,2.9c-9.3,0-16.5-2.3-21.7-6.8
	c-5.2-4.5-7.9-10.9-7.9-19.2c0-17.8,15.1-27.1,45.2-28l15.8-0.5v-5.5c0-6.9-1.6-12-4.7-15.3c-3.1-3.3-8.2-5-15.1-5
	c-7.8,0-16.6,2.3-26.4,6.8l-4.3-10.2c4.6-2.4,9.6-4.2,15.1-5.6c5.5-1.3,11-2,16.5-2c11.1,0,19.4,2.3,24.7,7c5.3,4.7,8,12.2,8,22.5
	V516.5L969.4,516.5z M983.7,384.6h-13.4v-39.8h-49.4v39.8h-13.4v-88.2h13.4v36.9h49.4v-36.9h13.4V384.6z M1079.5,547.1L1079.5,547.1
	h-13.7v-30.5h-65.1v30.5h-13.6v-42h7.3c7.6-9.8,13.6-21.2,17.9-34.4c4.3-13.1,6.6-27.3,6.7-42.3h47.2v76.7h13.4L1079.5,547.1
	L1079.5,547.1z M1102.2,338.6c-3.6-4.3-5.4-9.8-5.4-16.3c0-8,2.7-14.4,8.1-19c5.4-4.6,13-6.9,22.7-6.9h39.3v88.2h-13.4v-35.3h-22.3
	l-23.1,35.3h-15.6l25.4-37.3C1111.1,345.8,1105.9,342.9,1102.2,338.6z M1167.4,509.7c-6.2,4.6-15.3,6.9-27.3,6.9h-42v-88.2h14.1
	v36.4l0,0h28.8c23.8,0,35.7,8.3,35.7,24.9C1176.7,498.4,1173.6,505,1167.4,509.7z M1390.5,368.5h92.9l-83.1,67.1l23,92.8l-85.6-59.6
	l-92.7,58.5l36-96.6l-76.2-62.2h102.6l55.8-103.1L1390.5,368.5z"/>
<polygon points="1322.4,384.6 1258.8,384.6 1305.9,423 1284.7,479.4 1340.9,447 1392.6,483 1378.5,425.7 1429.5,384.6 1371.7,384.6 
	1355.4,323.4 "/>
</svg>
