<?xml version="1.0" standalone="no"?>
<!DOCTYPE svg PUBLIC "-//W3C//DTD SVG 20010904//EN"
 "http://www.w3.org/TR/2001/REC-SVG-20010904/DTD/svg10.dtd">
<svg version="1.0" xmlns="http://www.w3.org/2000/svg"
 width="384.000000pt" height="384.000000pt" viewBox="0 0 384.000000 384.000000"
 preserveAspectRatio="xMidYMid meet">
<metadata>
Created by potrace 1.11, written by Peter Selinger 2001-2013
</metadata>
<g transform="translate(0.000000,384.000000) scale(0.100000,-0.100000)"
fill="#000000" stroke="none">
<path d="M1915 3820 c-3 -5 -1 -10 4 -10 6 0 11 5 11 10 0 6 -2 10 -4 10 -3 0
-8 -4 -11 -10z"/>
<path d="M1910 3648 c0 -6 -91 -308 -202 -670 l-202 -658 -673 -2 -672 -3 544
-413 c299 -227 542 -419 540 -425 -4 -11 -399 -1280 -411 -1320 -3 -9 237 168
533 395 296 226 545 412 553 412 8 0 257 -185 553 -412 296 -226 536 -404 533
-394 -10 35 -397 1278 -405 1304 -9 25 4 36 476 395 267 202 495 376 507 386
20 18 20 18 1 12 -11 -4 -380 -131 -819 -282 l-800 -274 -25 19 -26 19 -6 334
c-12 658 -10 1450 4 1497 l13 44 13 -43 c20 -65 20 -87 25 -973 3 -456 8 -831
10 -833 3 -3 359 118 793 268 433 150 804 276 823 280 19 4 -255 7 -610 8
l-645 1 -205 670 c-180 588 -220 708 -220 658z"/>
<path d="M1335 2370 l-140 -6 137 -2 c83 -1 139 2 143 8 3 6 5 9 3 8 -2 -1
-66 -5 -143 -8z"/>
<path d="M2369 2367 c4 -4 70 -6 147 -5 l139 3 -147 5 c-81 3 -144 1 -139 -3z"/>
<path d="M2649 1473 c-13 -16 -12 -17 4 -4 16 13 21 21 13 21 -2 0 -10 -8 -17
-17z"/>
<path d="M1920 916 c0 -2 8 -10 18 -17 15 -13 16 -12 3 4 -13 16 -21 21 -21
13z"/>
<path d="M2010 846 c0 -2 8 -10 18 -17 15 -13 16 -12 3 4 -13 16 -21 21 -21
13z"/>
<path d="M2440 516 c0 -2 8 -10 18 -17 15 -13 16 -12 3 4 -13 16 -21 21 -21
13z"/>
</g>
</svg>
