<?xml version="1.0" encoding="iso-8859-1"?>
<!-- Generator: Adobe Illustrator 19.0.0, SVG Export Plug-In . SVG Version: 6.00 Build 0)  -->
<svg version="1.1"
	 id="&#x421;&#x43B;&#x43E;&#x439;_2_&#x43A;&#x43E;&#x43F;&#x438;&#x44F;_3" xmlns:x="&ns_extend;" xmlns:i="&ns_ai;" xmlns:graph="&ns_graphs;"
	 xmlns="http://www.w3.org/2000/svg" xmlns:xlink="http://www.w3.org/1999/xlink" x="0px" y="0px" viewBox="0 0 205.333 205.333"
	 enable-background="new 0 0 205.333 205.333" xml:space="preserve">
<metadata>
	<sfw  xmlns="&ns_sfw;">
		<slices></slices>
		<sliceSourceBounds  width="198" height="198" y="-296" x="100" bottomLeftOrigin="true"></sliceSourceBounds>
		<optimizationSettings>
			<targetSettings  fileFormat="PNG24Format" targetSettingsID="0">
				<PNG24Format  transparency="true" filtered="false" noMatteColor="false" matteColor="#FFFFFF" interlaced="false">
					</PNG24Format>
			</targetSettings>
		</optimizationSettings>
	</sfw>
</metadata>
<path id="XMLID_36_" d="M150.36,70.892l-15.224-1.025l-3.753,55.749l15.433,1.039c12.825,0.863,18.189-13.482,19.128-27.419
	C167.632,74.172,157.138,71.348,150.36,70.892z"/>
<path id="XMLID_74_" d="M102.667,3.667c-54.676,0-99,44.324-99,99s44.324,99,99,99s99-44.324,99-99S157.343,3.667,102.667,3.667z
	 M26.23,105.75l14.025,1.095c0.365,10.674,7.307,17.23,19.614,18.191c14.555,1.136,22.612-3.172,23.199-10.684
	c0.502-6.44-3.3-8.897-12.166-11.285l-15.627-4.46c-16.421-4.521-24.421-9.465-23.237-24.644
	c1.328-17.02,12.897-25.373,34.069-23.72c21.302,1.663,31.664,12.19,30.276,29.976l-12.439-0.971
	c-0.124-10.345-6.645-15.482-19.48-16.483c-12.042-0.94-18.836,2.541-19.387,9.594c-0.622,7.973,4.551,9.919,15.234,12.913
	l15.121,4.111c15.64,4.306,21.692,10.332,20.531,25.205c-1.304,16.713-13.788,24.84-37.075,23.022
	C36.79,135.884,26.237,126.113,26.23,105.75z M160.167,161.25c0,0-29.417,25.25-59.25,25.25s-69.25-36.167-69.25-36.167
	S71.083,164,100.917,164s60.417-4,60.417-4L160.167,161.25z M147.708,141.422l-32.741-2.203l5.724-85.03l33.366,2.246
	c25.547,1.72,29.226,26.439,28.138,42.602C180.971,117.19,172.629,143.099,147.708,141.422z"/>
</svg>
