<?xml version="1.0" encoding="utf-8"?>
<!-- Generator: Adobe Illustrator 19.0.0, SVG Export Plug-In . SVG Version: 6.00 Build 0)  -->
<svg version="1.1" id="Слой_1" xmlns:x="&ns_extend;" xmlns:i="&ns_ai;" xmlns:graph="&ns_graphs;"
	 xmlns="http://www.w3.org/2000/svg" xmlns:xlink="http://www.w3.org/1999/xlink" x="0px" y="0px"
	 viewBox="324 198.7000122 1259.6999512 397.2999878" style="enable-background:new 324 198.7000122 1259.6999512 397.2999878;"
	 xml:space="preserve">
<metadata>
	<sfw  xmlns="&ns_sfw;">
		<slices></slices>
		<sliceSourceBounds  y="22.9999847" x="23.1498413" width="1207.4003906" height="351.2999878" bottomLeftOrigin="true">
			</sliceSourceBounds>
	</sfw>
</metadata>
<path d="M1024.3498535,475.1000366c-4.0999756,12.2000122-9.2000732,22.2000122-15.4000244,30h43.5999756v-66.2000122h-20.9000244
	C1030.9498291,450.7999878,1028.4498291,462.9000244,1024.3498535,475.1000366z"/>
<path d="M781.0498047,368.4000244c4.7000732-4.6000366,7.0999756-10.9000244,7.0999756-19.2000122v-8l-13.4000244,0.5999756
	c-10.5999756,0.4000244-18.2999268,2-23,4.9000244c-4.6999512,2.8999634-7,7.5-7,13.5999756c0,4.7999878,1.5,8.5,4.4000244,11
	c3,2.6000366,7.0999756,3.9000244,12.3000488,3.9000244C769.7498779,375.2000122,776.2498779,372.9000244,781.0498047,368.4000244z"
	/>
<path d="M675.8498535,375c7.5999756,0,13.5999756-3.0999756,17.9000244-9.2999878c4.3000488-6.1999512,6.5-14.7000122,6.5-25.5
	c0-11-2.2000732-19.3999634-6.5-25.2999878c-4.3000488-5.8999634-10.4000244-8.7999878-18.2000732-8.7999878
	c-9,0-15.5,2.5-19.5999756,7.5c-4,5-6.0999756,12.9000244-6.1999512,23.7999878v3
	c0,12.4000244,2.0999756,21.2999878,6.1999512,26.6000366C660.0499268,372.3000488,666.7498779,375,675.8498535,375z"/>
<path d="M1023.7498779,371.2999878c3,2.6000366,7.0999756,3.9000244,12.2999268,3.9000244
	c8.3000488,0,14.8000488-2.2999878,19.5999756-6.7999878c4.7000732-4.6000366,7.0999756-10.9000244,7.0999756-19.2000122v-8
	l-13.4000244,0.5999756c-10.5999756,0.4000244-18.2999268,2-23,4.9000244c-4.6999512,2.8999634-7,7.5-7,13.5999756
	C1019.3498535,365.1000366,1020.8498535,368.7999878,1023.7498779,371.2999878z"/>
<path d="M677.3498535,438.2000122c-9.3000488,0-16.2000732,2.9000244-20.9000244,8.6000366
	c-4.8000488,5.7000122-7.0999756,14.2000122-7.0999756,25.5999756c0,11.2999878,2.4000244,19.9000244,7.0999756,25.7999878
	c4.7999268,5.9000244,11.7999268,8.9000244,21,8.9000244c9.1999512,0,16.2999268-2.9000244,21.0999756-8.7999878
	c4.7999268-5.9000244,7.1999512-14.5,7.1999512-25.7999878c0-11.2000122-2.4000244-19.7000122-7.1999512-25.6000366
	C693.7498779,441.1000366,686.6499023,438.2000122,677.3498535,438.2000122z"/>
<path d="M916.7498779,478.7000122c-5,2.9000244-7.4000244,7.5-7.4000244,13.6000366c0,4.7999878,1.5,8.5,4.5999756,11
	c3.0999756,2.5999756,7.5,3.8999634,13,3.8999634c8.7999268,0,15.6999512-2.2999878,20.6999512-6.7999878
	c5-4.5999756,7.5-10.8999634,7.5-19.2000122v-8l-14.0999756,0.6000366
	C929.8498535,474.2000122,921.7498779,475.7999878,916.7498779,478.7000122z"/>
<path d="M1153.4498291,337.7000122v-29.7999878h-24.1999512c-13,0-19.5,4.9000244-19.5,14.5
	c0,10.2000122,7.4000244,15.2999878,22.1999512,15.2999878H1153.4498291z"/>
<path d="M1157.1499023,479.7999878c-3.6999512-2.2999878-9.6999512-3.3999634-18.0999756-3.3999634l-26.8000488-0.1000366
	v29.1000366h27.1999512c7.5,0,13.1999512-1.2000122,17.1999512-3.7000122s6-6.2000122,6-11.2000122
	C1162.6499023,485.6000366,1160.8498535,482,1157.1499023,479.7999878z"/>
<path d="M1554.4498291,274c-0.0999756-2.8999634-1.5999756-7.0999756-1.5999756-7.0999756
	c-6.4000244-25.9000092-29.9000244-45.2000122-57.6999512-45.2000122H406.5498352
	c-32.7000122,0-59.3999939,26.6999969-59.3999939,59.4000244V513.5c0,32.7000122,26.7000122,59.5,59.3999939,59.5h1088.7000732
	c32.6999512,0,59.4000244-26.7999878,59.3000488-59.5L1554.4498291,274z M1048.0498047,332.1000366l15-0.5v-5.5
	c0-6.9000244-1.5-12-4.5-15.2999878s-7.6999512-4.9000244-14.2999268-4.9000244
	c-7.4000244,0-15.7000732,2.2999878-24.9000244,6.7999878L1015.2498779,302.5
	c4.2999268-2.3999634,9.0999756-4.2000122,14.2999268-5.5999756c5.2000732-1.2999878,10.4000244-2,15.5999756-2
	c10.5,0,18.3000488,2.2999878,23.4000244,7c5.1000977,4.7000122,7.6000977,12.2000122,7.6000977,22.5v60.2000122h-9.9000244
	L1063.5498047,372h-0.5999756c-4.4000244,5.5-8.7999268,9.2999878-13.1999512,11.2000122
	c-4.4000244,2-9.8000488,2.9000244-16.4000244,2.9000244c-8.7000732,0-15.5999756-2.2999878-20.5999756-6.7999878
	s-7.4000244-10.9000244-7.4000244-19.2000122C1005.3498535,342.2999878,1019.5498047,333,1048.0498047,332.1000366z
	 M636.3498535,296.4000244h10.9000244L649.1499023,308.5h0.5999756c3.4000244-4.7999878,7.4000244-8.2999878,12-10.5
	c4.5999756-2.0999756,9.7999268-3.2000122,15.6999512-3.2000122c11.7000732,0,20.7000732,4,27.0999756,12
	c6.4000244,8,9.5,19.2000122,9.5,33.6000366c0,14.5-3.1999512,25.7000122-9.6999512,33.7999878
	c-6.4000244,8-15.4000244,12-26.9000244,12c-5.7000732,0-11-1.1000366-15.7000732-3.2000122
	c-4.6999512-2.1000366-8.6999512-5.4000244-12-9.7999878h-1c0.5999756,5.2000122,1,10,1,14.5999756v36.2999878h-13.4000244
	V296.4000244H636.3498535z M506.3498535,512.7000122h-14.5V357.7999878h-63.8999939v154.8999634h-14.3999939V339.9000244h92.8999939
	L506.3498535,512.7000122z M610.0498047,516.5999756L610.0498047,516.5999756h-14.4000244v-76.7999878h-28
	c-1.5,19.1000366-3.6999512,34.2999878-6.3999634,45.5s-6.2999878,19.4000244-10.6000366,24.6000366
	c-4.2999878,5.1999512-9.8999634,7.7999878-16.5999756,7.7999878c-3.0999756,0-5.5-0.2999878-7.2999878-1v-9.8999634
	c1.2000122,0.2999878,2.7000122,0.5,4.2999878,0.5c6.5,0,11.7000122-6.5,15.5999756-19.6000366
	c3.9000244-13,6.8000488-32.7999878,8.8000488-59.3999634h54.5999756V516.5999756L610.0498047,516.5999756z
	 M605.6499023,384.6000366L551.2498779,325v59.6000366h-13.7000732V266.9000244h13.7000732v57l53-57h15.6999512L567.8498535,324
	l54.4000244,60.6000366H605.6499023z M708.9498291,506.1000366c-7.6999512,8.0999756-18.1999512,12.0999756-31.6999512,12.0999756
	c-8.3000488,0-15.7000732-1.9000244-22.2000732-5.5999756s-11.5-9-15-15.8999634c-3.5-6.9000244-5.2999268-15-5.2999268-24.2999878
	c0-14.4000244,3.7999268-25.6000366,11.4000244-33.6000366c7.5999756-8,18.1999512-12,31.6999512-12
	c13.0999756,0,23.4000244,4.1000366,31.0999756,12.2999878c7.5999756,8.2000122,11.5,19.2999878,11.5,33.2999878
	C720.4498291,486.7999878,716.6499023,498,708.9498291,506.1000366z M730.7498779,360.1000366
	c0-17.7999878,14.1999512-27.1000366,42.6999512-28l15-0.5v-5.5c0-6.9000244-1.5-12-4.5-15.2999878
	s-7.6999512-4.9000244-14.2999268-4.9000244c-7.4000244,0-15.7000732,2.2999878-24.9000244,6.7999878L740.6499023,302.5
	c4.2999268-2.3999634,9.0999756-4.2000122,14.2999268-5.5999756c5.2000732-1.2999878,10.4000244-2,15.5999756-2
	c10.5,0,18.3000488,2.2999878,23.4000244,7c5.1000977,4.7000122,7.5999756,12.2000122,7.5999756,22.5v60.2000122h-9.9000244
	L788.9498291,372h-0.5999756c-4.4000244,5.5-8.8000488,9.2999878-13.2000732,11.2000122
	c-4.4000244,2-9.7999268,2.9000244-16.4000244,2.9000244c-8.6999512,0-15.5999756-2.2999878-20.5999756-6.7999878
	S730.7498779,368.4000244,730.7498779,360.1000366z M883.6499023,546.9000244h-14.3000488v-30.2999878H745.1499023v-88h14.0999756
	v76.5h41.2999268v-76.5h14.0999756l0.0999756,76.5h41.4000244v-76.5h14.0999756v76.5h13.4000244v41.7999878H883.6499023z
	 M844.5498047,365.7999878C848.9498291,371.5999756,855.4498291,374.5,863.9498291,374.5
	c7.4000244,0,14.9000244-1.5999756,22.5999756-4.7000122v11.7999878c-5.7999268,3-13.2999268,4.6000366-22.1999512,4.6000366
	c-12.8000488,0-22.7000732-3.9000244-29.7000732-11.7999878c-7-7.9000244-10.5-19-10.5-33.4000244
	c0-14.7999878,3.5999756-26.2000122,10.7000732-34.2000122c7.0999756-8,17.1999512-12.0999756,30.4000244-12.0999756
	c4.1999512,0,8.5,0.5,12.6999512,1.3999634c4.2000732,0.9000244,7.5999756,2,10,3.2000122l-4.0999756,11.4000244
	c-3-1.2000122-6.1999512-2.2000122-9.6999512-2.9000244c-3.5-0.7999878-6.5999756-1.2000122-9.3000488-1.2000122
	c-17.9000244,0-26.9000244,11.4000244-26.9000244,34.2999878
	C837.9498291,351.7000122,840.1499023,360.1000366,844.5498047,365.7999878z M969.4498291,516.5h-10.5v0.0999756l0,0l0,0l0,0
	L956.1499023,504h-0.7000732c-4.6999512,5.5-9.2999268,9.2999878-13.9000244,11.1999512
	c-4.5999756,2-10.4000244,2.9000244-17.2999268,2.9000244c-9.3000488,0-16.5-2.2999878-21.7000732-6.7999878
	c-5.1999512-4.5-7.9000244-10.8999634-7.9000244-19.2000122c0-17.7999878,15.0999756-27.0999756,45.2000732-28l15.7999268-0.5v-5.5
	c0-6.8999634-1.5999756-12-4.6999512-15.2999878c-3.1000977-3.2999878-8.2000732-5-15.0999756-5
	c-7.8000488,0-16.5999756,2.2999878-26.4000244,6.7999878l-4.3000488-10.2000122
	c4.5999756-2.3999634,9.5999756-4.2000122,15.0999756-5.5999756c5.5-1.2999878,11-2,16.5-2
	c11.0999756,0,19.4000244,2.2999878,24.7000732,7c5.2999268,4.7000122,8,12.2000122,8,22.5V516.5L969.4498291,516.5z
	 M983.7498779,384.6000366h-13.4000244v-39.7999878h-49.4000244v39.7999878h-13.4000244v-88.2000122h13.4000244v36.9000244
	h49.4000244v-36.9000244h13.4000244V384.6000366z M1079.5499268,547.0999756L1079.5499268,547.0999756h-13.7000732v-30.5
	h-65.0999756v30.5h-13.5999756v-42h7.2999268c7.5999756-9.7999878,13.5999756-21.2000122,17.9000244-34.3999634
	c4.3000488-13.1000366,6.5999756-27.2999878,6.7000732-42.2999878h47.1999512v76.6999512h13.4000244v42H1079.5499268z
	 M1102.2498779,338.6000366c-3.5999756-4.2999878-5.4000244-9.7999878-5.4000244-16.2999878c0-8,2.6999512-14.4000244,8.0999756-19
	c5.4000244-4.6000366,13-6.9000244,22.6999512-6.9000244h39.3000488v88.2000122h-13.4000244v-35.2999878h-22.3000488
	l-23.0999756,35.2999878h-15.5999756l25.4000244-37.2999878
	C1111.1499023,345.7999878,1105.9498291,342.9000244,1102.2498779,338.6000366z M1167.4498291,509.7000122
	c-6.1999512,4.5999756-15.3000488,6.9000244-27.3000488,6.9000244h-42v-88.2000122h14.0999756v36.4000244l0,0h28.8000488
	c23.8000488,0,35.6999512,8.2999878,35.6999512,24.8999634C1176.7498779,498.4000244,1173.6499023,505,1167.4498291,509.7000122z
	 M1420.5499268,368.5h92.9000244l-83.0999756,67.1000366l23,92.7999878L1367.75,468.8000488l-92.6999512,58.5l36-96.5999756
	l-76.1999512-62.2000122h102.5999756l55.8000488-103.1000366L1420.5499268,368.5z"/>
<polygon points="1352.4498291,384.6000366 1288.8498535,384.6000366 1335.9498291,423 1314.7498779,479.4000244 1370.9498291,447 
	1422.6499023,483 1408.5499268,425.7000122 1459.5499268,384.6000366 1401.7498779,384.6000366 1385.4498291,323.4000244 "/>
</svg>
